<svg xmlns="http://www.w3.org/2000/svg" xmlns:xlink="http://www.w3.org/1999/xlink" xmlns:lucid="lucid" width="395.19" height="570"><g transform="translate(-543.2045857314856 -210)" lucid:page-tab-id="0_0"><g fill="none"><path d="M700 480V320h80v160z"/><path d="M740 480v-36l-12-8 24-12-24-12 24-12-24-12 24-12-24-12 24-12-12-8v-24" stroke="#000" stroke-width="2"/></g><use xlink:href="#a" transform="matrix(1,0,0,1,654,288) translate(-4.833333333333336 86.22222222222223)"/><g fill="none"><path d="M700 680V520h80v160z"/><path d="M740 680v-36l-12-8 24-12-24-12 24-12-24-12 24-12-24-12 24-12-12-8v-24" stroke="#000" stroke-width="2"/></g><use xlink:href="#b" transform="matrix(1,0,0,1,654,488) translate(-4.833333333333336 86.22222222222223)"/><path d="M740 519v-38" stroke="#000" stroke-width="2" fill="none"/><path d="M739 520v-1.03h2V520zM741 481.03h-2V480h2z"/><path d="M700 700h80v60h-80z" fill="none"/><path d="M700 712h80m-12 12h-56m12 12h32m-24 12h16m-4 12h-8m4-60v12z" stroke="#000" stroke-width="2" fill="#fff"/><path d="M740 319v-37" stroke="#000" stroke-width="2" fill="none"/><path d="M739 320v-1.03h2V320z"/><path d="M740 282.03V281" stroke="#000" stroke-width="2" fill="none"/><path d="M640 240h40v40h-40z" fill="none"/><path d="M672.5 260c0 6.9-5.6 12.5-12.5 12.5s-12.5-5.6-12.5-12.5 5.6-12.5 12.5-12.5 12.5 5.6 12.5 12.5" stroke="#000" stroke-width="2" fill="#fff"/><path d="M674.5 259.87H740V279M674.52 259.87h-4.03M740 278.97V280" stroke="#000" stroke-width="2" fill="none"/><path d="M800 480h40v40h-40z" fill="none"/><path d="M832.5 500c0 6.9-5.6 12.5-12.5 12.5s-12.5-5.6-12.5-12.5 5.6-12.5 12.5-12.5 12.5 5.6 12.5 12.5" stroke="#000" stroke-width="2" fill="#fff"/><path d="M805.6 500.8H741M805.57 500.8h4.03M741.03 500.8H740" stroke="#000" stroke-width="2" fill="none"/><path d="M841.6 470h76.8v60h-76.8z" stroke="#000" stroke-opacity="0" stroke-width="2" fill="#fff" fill-opacity="0"/><use xlink:href="#c" transform="matrix(1,0,0,1,846.6022928657428,475) translate(8.00617283950617 31.138888888888893)"/><path d="M563.2 230H640v60h-76.8z" stroke="#000" stroke-opacity="0" stroke-width="2" fill="#fff" fill-opacity="0"/><use xlink:href="#d" transform="matrix(1,0,0,1,568.2045857314856,235) translate(14.69074074074074 31.138888888888893)"/><path d="M740 699v-18" stroke="#000" stroke-width="2" fill="none"/><path d="M739 700v-1.03h2V700zM741 681.03h-2V680h2z"/><defs><path d="M233-177c-1 41-23 64-60 70L243 0h-38l-65-103H63V0H30v-248c88 3 205-21 203 71zM63-129c60-2 137 13 137-47 0-61-80-42-137-45v92" id="e"/><path d="M27 0v-27h64v-190l-56 39v-29l58-41h29v221h61V0H27" id="f"/><g id="a"><use transform="matrix(0.08641975308641976,0,0,0.08641975308641976,0,0)" xlink:href="#e"/><use transform="matrix(0.08641975308641976,0,0,0.08641975308641976,22.38271604938272,0)" xlink:href="#f"/></g><path d="M101-251c82-7 93 87 43 132L82-64C71-53 59-42 53-27h129V0H18c2-99 128-94 128-182 0-28-16-43-45-43s-46 15-49 41l-32-3c6-41 34-60 81-64" id="g"/><g id="b"><use transform="matrix(0.08641975308641976,0,0,0.08641975308641976,0,0)" xlink:href="#e"/><use transform="matrix(0.08641975308641976,0,0,0.08641975308641976,22.38271604938272,0)" xlink:href="#g"/></g><path d="M137 0h-34L2-248h35l83 218 83-218h36" id="h"/><path d="M100-194c62-1 85 37 85 99 1 63-27 99-86 99S16-35 15-95c0-66 28-99 85-99zM99-20c44 1 53-31 53-75 0-43-8-75-51-75s-53 32-53 75 10 74 51 75" id="i"/><path d="M84 4C-5 8 30-112 23-190h32v120c0 31 7 50 39 49 72-2 45-101 50-169h31l1 190h-30c-1-10 1-25-2-33-11 22-28 36-60 37" id="j"/><path d="M59-47c-2 24 18 29 38 22v24C64 9 27 4 27-40v-127H5v-23h24l9-43h21v43h35v23H59v120" id="k"/><g id="c"><use transform="matrix(0.08641975308641976,0,0,0.08641975308641976,0,0)" xlink:href="#h"/><use transform="matrix(0.06049382716049383,0,0,0.06049382716049383,20.740740740740744,4.355555555555555)" xlink:href="#i"/><use transform="matrix(0.06049382716049383,0,0,0.06049382716049383,32.839506172839506,4.355555555555555)" xlink:href="#j"/><use transform="matrix(0.06049382716049383,0,0,0.06049382716049383,44.93827160493827,4.355555555555555)" xlink:href="#k"/></g><path d="M24-231v-30h32v30H24zM24 0v-190h32V0H24" id="l"/><path d="M117-194c89-4 53 116 60 194h-32v-121c0-31-8-49-39-48C34-167 62-67 57 0H25l-1-190h30c1 10-1 24 2 32 11-22 29-35 61-36" id="m"/><g id="d"><use transform="matrix(0.08641975308641976,0,0,0.08641975308641976,0,0)" xlink:href="#h"/><use transform="matrix(0.06049382716049383,0,0,0.06049382716049383,20.740740740740744,4.355555555555555)" xlink:href="#l"/><use transform="matrix(0.06049382716049383,0,0,0.06049382716049383,25.519753086419755,4.355555555555555)" xlink:href="#m"/></g></defs></g></svg>